<?xml version="1.0" encoding="UTF-8"?>
<svg width="1093px" height="215px" viewBox="0 0 1093 215" version="1.1" xmlns="http://www.w3.org/2000/svg" xmlns:xlink="http://www.w3.org/1999/xlink">
    <!-- Generator: Sketch 53 (72520) - https://sketchapp.com -->
    <title>Acronym logotype white</title>
    <desc>Created with Sketch.</desc>
    <g id="Acronym-logotype-white" stroke="none" stroke-width="1" fill="none" fill-rule="evenodd">
        <path d="M202.579,7.14 L197.875,7.14 C193.758979,7.14 190.182015,8.46298677 187.144,11.109 C184.105985,13.7550132 182.489001,17.0379804 182.293,20.958 L182.293,137.382 C182.293,160.314115 175.041073,178.835929 160.537,192.948 C146.032927,207.060071 126.727121,214.116 102.619,214.116 C78.5108795,214.116 58.960075,207.10907 43.966,193.095 C28.971925,179.08093 21.475,160.608115 21.475,137.676 L21.475,21.84 C21.475,15.9599706 18.9270255,11.6480137 13.831,8.904 C11.4789882,7.72799412 8.8330147,7.14 5.893,7.14 L1.189,7.14 L1.189,4.2 L60.871,4.2 L60.871,7.14 L56.167,7.14 C51.8549784,7.14 48.2290147,8.46298677 45.289,11.109 C42.3489853,13.7550132 40.781001,17.1359794 40.585,21.252 L40.585,133.56 C40.585,154.924107 46.3179427,172.171934 57.784,185.304 C69.2500573,198.436066 84.586904,205.002 103.795,205.002 C123.003096,205.002 138.58494,198.779062 150.541,186.333 C162.49706,173.886938 168.475,157.570101 168.475,137.382 L168.475,21.252 C168.278999,17.1359794 166.711015,13.7550132 163.771,11.109 C160.830985,8.46298677 157.205022,7.14 152.893,7.14 L148.189,7.14 L148.189,4.2 L202.579,4.2 L202.579,7.14 Z M481.879,207.06 L486.583,207.06 L486.583,210 L422.785,210 L422.785,207.354 L427.195,207.354 C430.527017,207.354 433.368988,206.031013 435.721,203.385 C438.073012,200.738987 439.053002,197.848016 438.661,194.712 L425.431,46.83 L363.691,184.128 C358.202973,196.08406 354.871006,206.07996 353.695,214.116 L350.755,214.116 L275.491,50.946 L262.849,194.712 C262.456998,197.848016 263.436988,200.738987 265.789,203.385 C268.141012,206.031013 270.884984,207.354 274.021,207.354 L278.725,207.354 L278.725,210 L221.689,210 L221.689,207.06 L226.393,207.06 C231.881027,207.06 236.63398,205.394017 240.652,202.062 C244.67002,198.729983 247.070996,194.222028 247.855,188.538 L269.905,0.084 L272.845,0.084 L354.871,177.366 L435.133,0.084 L437.779,0.084 L460.417,188.538 C461.397005,196.378039 465.316966,201.865984 472.177,205.002 C475.117015,206.374007 478.350982,207.06 481.879,207.06 Z M613.591,214.116 C582.622845,213.919999 557.388098,204.022098 537.886,184.422 C518.383902,164.821902 508.633,138.99916 508.633,106.953 C508.633,74.9068398 518.383902,49.084098 537.886,29.484 C557.388098,9.883902 583.210839,0.084 615.355,0.084 C641.619131,0.084 664.844899,6.74793336 685.033,20.076 L690.913,61.53 L688.267,61.53 C683.954978,44.6739157 675.233066,31.6890456 662.101,22.575 C648.968934,13.4609544 633.38709,8.904 615.355,8.904 C589.678872,8.904 569.148077,17.8219108 553.762,35.658 C538.375923,53.4940892 530.683,77.111853 530.683,106.512 C530.683,135.912147 538.277924,159.57891 553.468,177.513 C568.658076,195.44709 588.698876,204.707997 613.591,205.296 C635.54311,205.296 653.868927,199.31806 668.569,187.362 C684.445079,174.425935 694.048983,153.356146 697.381,124.152 L699.733,124.152 L696.205,170.31 C678.368911,199.514146 650.831186,214.116 613.591,214.116 Z M869.371,60.942 C869.371,69.5660431 867.607018,77.6019628 864.079,85.05 C857.610968,98.9660696 846.243081,108.667973 829.975,114.156 C824.290972,116.11601 819.391021,117.096 815.275,117.096 C803.122939,117.096 792.637044,114.842023 783.817,110.334 L783.817,107.394 C798.125072,110.530016 811.354939,108.962031 823.507,102.69 C834.287054,97.2019726 841.63698,88.1860627 845.557,75.642 C846.733006,71.7219804 847.321,67.9980176 847.321,64.47 L847.321,58.002 C846.928998,44.2819314 843.303034,33.3550407 836.443,25.221 C829.582966,17.0869593 819.979062,13.02 807.631,13.02 L773.821,13.02 L773.821,188.538 C774.017001,193.634025 775.927982,197.994982 779.554,201.621 C783.180018,205.247018 787.540975,207.06 792.637,207.06 L796.459,207.06 L796.459,210 L732.073,210 L732.073,207.06 L735.895,207.06 C740.991025,207.06 745.351982,205.247018 748.978,201.621 C752.604018,197.994982 754.514999,193.634025 754.711,188.538 L754.711,24.192 C754.122997,19.2919755 752.065018,15.2250162 748.537,11.991 C745.008982,8.75698383 740.795024,7.14 735.895,7.14 L732.367,7.14 L732.073,4.2 L808.807,4.2 C827.623094,4.2 842.420946,9.24694953 853.201,19.341 C863.981054,29.4350505 869.371,43.3019118 869.371,60.942 Z M1006.669,214.116 C975.700845,213.919999 950.466098,204.022098 930.964,184.422 C911.461902,164.821902 901.711,138.99916 901.711,106.953 C901.711,74.9068398 911.461902,49.084098 930.964,29.484 C950.466098,9.883902 976.288839,0.084 1008.433,0.084 C1034.69713,0.084 1057.9229,6.74793336 1078.111,20.076 L1083.991,61.53 L1081.345,61.53 C1077.03298,44.6739157 1068.31107,31.6890456 1055.179,22.575 C1042.04693,13.4609544 1026.46509,8.904 1008.433,8.904 C982.756872,8.904 962.226077,17.8219108 946.84,35.658 C931.453923,53.4940892 923.761,77.111853 923.761,106.512 C923.761,135.912147 931.355924,159.57891 946.546,177.513 C961.736076,195.44709 981.776876,204.707997 1006.669,205.296 C1028.62111,205.296 1046.94693,199.31806 1061.647,187.362 C1077.52308,174.425935 1087.12698,153.356146 1090.459,124.152 L1092.811,124.152 L1089.283,170.31 C1071.44691,199.514146 1043.90919,214.116 1006.669,214.116 Z" id="UMCPC" fill="#FFFFFF" fill-rule="nonzero"></path>
    </g>
</svg>